<svg xmlns="http://www.w3.org/2000/svg" width="272.485" height="183.948" viewBox="0 0 272.485 183.948">
  <defs>
    <style>
      .cls-1 {
        fill: #efdf00;
      }
    </style>
  </defs>
  <g id="hybrid" transform="translate(0)">
    <path id="hybrid-2" data-name="hybrid" class="cls-1" d="M629.427,532.311c-.058-.7-2.033-1.969-2.635-1.741a6.148,6.148,0,0,0-2.694,2.77c-2.962,5.423-5.791,10.962-9.028,16.829-1.56,2.5-2.407,4.961-4.026,6.738-5.125,5.522-8.2,13.568-18.389,12.692a3.894,3.894,0,0,0-3.278,1.245c-.964-2.127-1.823-4.307-2.746-6.439-.55-1.28.853-4.085,2.215-5.347,8.859-8.274,10.214-15.719,4.873-25.8-1.958-3.693-2.629-8.047-4.511-11.781-1.525-3.039-3.979-5.569-6.031-8.374-2.267,2.32-5.347,4.207-6.661,7.012-3.594,7.584-6.632,15.462-9.542,23.356-1.52,4.131-3.331,4.125-6.632,1.928-4.459-2.969-9.326-5.323-13.8-8.28-1.817-1.2-4.745-2.84-.929-5.545,6.808-4.856,6.106-14.726,1.642-22.544-2.916-5-5.405-10.238-8.286-15.251a40.874,40.874,0,0,0-4.12-5.171c-1.484,1.876-3.646,3.506-4.347,5.61-2.244,6.767-3.226,14.048-6.135,20.475-1.964,4.347-5.762,9.677-9.817,10.84-5.44,1.572-11.956-.216-17.933-1.069A7.244,7.244,0,0,1,491.709,521q-5.487-12.473-10.208-25.243c-3.225-8.707-12.657-15.345-21.5-14.182-2.039.263-4.827,1.887-5.493,3.465s.643,4.248,1.578,6.2c1.531,3.214,3.862,6.089,5.09,9.39.958,2.524.631,5.493.958,8.245.7,5.469,1.338,10.951,2.1,16.4.3,2.121.392,2.034-10.88,8.128-1.613.876-2.6,2.852-4.143,3.933-1.239.865-2.875,1.128-4.336,1.665-.269-1.315-.456-2.647-.83-3.921-1.905-6.644-3.278-13.5-5.978-19.809-2.22-5.177-14.275-8.35-18.448-5.791-5.738,3.518-4.874,5.446.2,15.052,3.249,6.159,4.78,13.7,5.02,20.709.088,2.594-5.709,5.376-8.788,8.111a18.742,18.742,0,0,0-3.027,3.062c-3.144,4.476-4.757,1.011-6.311-1.285a12.768,12.768,0,0,1-1.479-4.4c-1.659-7.485-9.939-11.4-17.366-10.214-6.054.976-7.824,6.212-3.95,10.98,2.641,3.255,5.7,6.2,8.017,9.647,1.671,2.5,2.431,5.61,3.588,8.415-3.167-1.467-6.778-2.413-9.4-4.517-6.177-5.02-12.447-9.338-20.861-8.753-6.13.427-8.1,5-5.294,10.3,3.956,7.456,10.81,10.764,17.823,14.147,1.4.678,2.8,1.326,4.207,1.981-1.373,1.017-2.823,1.952-4.114,3.074-2.016,1.724-4.961,3.255-5.61,5.434-2.232,7.4,2.682,17.887,9.051,22.678,11.371,8.566,22.556,17.419,33.658,26.36,12.517,10.1,26.068,19.19,41.8,22.076,15.549,2.864,31.759,3.36,47.618,2.91,9.572-.275,19.838-1.736,28.791-8.245,11.336-6.276,22.17-12.131,32.372-18.974,5.756-3.88,10.816-9.046,15.573-14.194,9.186-9.928,18.033-20.189,26.821-30.468,2.629-3.068,2.349-5.785-2.232-7.1a12.142,12.142,0,0,1-1.817-.719,18.16,18.16,0,0,0,3.763-1.887c2.267-1.461,5.043-2.454,6.737-4.394,5.879-6.732,15.941-10.764,16.642-20.861C631.688,549.783,630.192,541.006,629.427,532.311ZM560.65,605.2c-6.93,5.773-13.475,12.131-21,17.04-10.635,6.884-22.018,12.668-33.074,18.933-7.316,1.443-13.148,3.915-19.067,4.12-15.4.52-31.2,2.1-45.152-7.012q-15.865-10.352-31.472-21.083c-.322-.251.491-2.735,1.3-3.757.567-.719,2.028-.958,3.1-1.005,12.739-.532,25.471-1.2,38.21-1.274,2.256-.018,4.932,2.139,6.732,3.962,5.259,5.329,9.63,11.658,15.362,16.356,7.468,6.118,13.452,5.043,21.948.263,9.04-5.078,16.583-10.39,17.834-21.942.245-2.314,5.294-4.9,8.561-5.82,4.611-1.3,9.613-1.069,14.427-1.677,6.8-.865,13.568-2.045,20.387-2.746,1.969-.187,4.067.9,6.106,1.4C563.455,602.391,562.169,603.922,560.65,605.2Zm8.911-27.447c-14.994,2.045-29.988,4.05-45.023,5.779-10.588,1.21-21.212,2.3-31.847,2.857-22.439,1.186-44.877,1.934-67.316,2.98-5.323.245-10.617,1.022-15.929,1.332-1.414.088-2.869-.684-4.306-1.07.771-1.595,1.139-3.763,2.413-4.663,2.676-1.928,6.007-2.9,8.765-4.733,7.9-5.276,15.1-11.956,23.584-15.947,16.426-7.713,31.753-18.459,50.785-19.634,3-.193,5.843-2.232,8.882-2.7q27.847-4.33,50.177,12.879l.029-.035a232.638,232.638,0,0,1,21.41,15.883c1.537,1.256,2.524,3.179,3.769,4.8C573.161,576.26,571.425,577.5,569.561,577.75Z" transform="translate(-358.724 -481.44)"/>
  </g>
</svg>
