<svg id="Crown:_black" data-name="Crown: black" xmlns="http://www.w3.org/2000/svg" width="92.86" height="103.164" viewBox="0 0 92.86 103.164">
  <path id="Crown" d="M1553.039,1125.3c2.133-.935,4.129-1.844,6.147-2.711,1.792-.768,3.615-1.456,5.4-2.245,1.092-.482,2.132-1.076,3.19-1.631a62.731,62.731,0,0,0,6.3-3.377c2.905-1.968,5.292-4.73,8.636-6.015,2-.769,2.23-2.284,2.264-4a17.513,17.513,0,0,0-.174-2.664c-.294-2.258-.646-4.509-.943-6.767a30.106,30.106,0,0,0-.493-4.188c-.637-2.284-1.546-4.5-2.315-6.745a32.342,32.342,0,0,1-1.045-3.416c-.824-3.761-1.55-7.544-2.388-11.3a45.4,45.4,0,0,0-1.622-6.1c-1.381-3.685-2.953-7.3-4.478-10.93a9.725,9.725,0,0,0-1.448-2.7,2.683,2.683,0,0,0-2.081-.888,5.785,5.785,0,0,0-4.329,3.718,14.615,14.615,0,0,0-.692,4.85c-.115,2.5-.676,4.974-1.032,7.459-.285,2.032-.539,4.069-.824,6.1-.476,3.4-.922,6.805-1.461,10.195q-.93,5.847-2.013,11.66a1.372,1.372,0,0,1-2.354.862,5.345,5.345,0,0,1-2.23-2.885,10.151,10.151,0,0,0-1.3-2.643c-1.686-2.779-3.432-5.516-4.18-8.757a9.228,9.228,0,0,0-.926-1.985,36.455,36.455,0,0,1-1.925-3.766c-.815-2.2-4-3.023-5.5-1.208a16.954,16.954,0,0,0-2.519,4c-1.35,3.112-2.54,6.293-3.7,9.478-.922,2.54-1.708,5.127-2.541,7.7-.569,1.75-1.075,3.526-1.691,5.26-.642,1.788-1.92,2.254-3.241,1.221-3.143-2.464-5.4-5.7-7.68-8.918-1.627-2.293-2.923-4.863-4.783-6.929a102.539,102.539,0,0,1-8.9-11.659c-1.385-2.062-2.043-2.276-3.449-2.007-2.073.4-2.671,1.964-2.76,3.843-.017.294,0,.589-.021.88-.242,3.172-.616,6.335-.7,9.512-.085,3.193.213,6.4.178,9.593-.051,4.525-.361,9.047-.361,13.572,0,3.877.259,7.753.425,11.633a20.091,20.091,0,0,0,.276,3.544,4.138,4.138,0,0,1-.849,4.094c-.791.854-1.092,3.065-.42,3.672,1.695,1.516,3.5,2.954,5.9,3.116,1.457.1,2.944-.158,4.388.009,3.3.38,6.482-.444,9.715-.7,2.035-.162,4.065-.461,6.087-.751,1.916-.273,3.814-.667,5.73-.914,3.428-.436,6.864-.756,10.144-2,.845-.32,1.886-.094,2.765-.363,1.7-.516,3.372-1.153,5.021-1.832C1548.481,1127.335,1550.686,1126.318,1553.039,1125.3Zm-15.347-3.441c-1.041.312-2,.871-3.046,1.2a51.583,51.583,0,0,1-13.712,2.015c-2.434.089-4.864.192-7.3.282-3.768.136-7.54.286-11.312.384-.837.022-1.44-.055-1.449-1.357-.03-4.888-.386-9.772-.433-14.661-.034-4.06.28-8.125.272-12.185,0-2.83-.382-5.657-.433-8.483-.064-3.565.022-7.134.093-10.7a4.383,4.383,0,0,1,.5-1.345,4.6,4.6,0,0,1,1.279.824c3.326,4.342,6.762,8.615,9.867,13.115a107.862,107.862,0,0,0,8.98,11.092,36.807,36.807,0,0,0,4.226,3.646c1.572,1.272,5.1-.111,6.155-1.734,1.622-2.514,1.852-5.358,2.672-8.073,1.2-3.991,2.646-7.911,4.009-11.852.62-1.8,1.266-3.586,1.963-5.358.119-.307.535-.495.815-.739a5.143,5.143,0,0,1,.637.769c1.661,2.967,3.335,5.925,4.941,8.923,1.1,2.037,2.056,4.145,3.139,6.19a12.45,12.45,0,0,0,4.226,5.128c2.068,1.306,6.1-.022,6.724-2.873.757-3.475,1.818-6.882,2.651-10.344.4-1.665.578-3.386.858-5.081.684-3.432,1.283-6.69,1.877-9.951.42-2.314.816-4.633,1.274-6.934a3.869,3.869,0,0,1,.62-1.067c.238.286.582.533.7.862,1.261,3.688,2.591,7.36,3.7,11.1,1.18,4.009,2.149,8.082,3.2,12.129.442,1.686.938,3.364,1.266,5.076.51,2.63.922,5.281,1.329,7.928.328,2.16.6,4.333.875,6.5a6.591,6.591,0,0,1,.055,2.139c-.089.406-.7,1.033-1.011,1-4.175-.456-8.02.872-11.847,2.173q-4.958,1.685-9.817,3.633c-2.676,1.084-5.2,2.574-7.922,3.526C1544.836,1119.974,1541.226,1120.807,1537.692,1121.862Zm-40.58-55.13a12.325,12.325,0,0,1-3.619-2.515c-2-2.4-1.95-5.042,1.1-6.882a8.45,8.45,0,0,1,5.79-1.149,9.206,9.206,0,0,1,6.605,4.12c.726,1.14,1.576,2.144,1.176,3.7-.025,1.541-.913,2.326-2,3.146C1502.982,1069.554,1500.051,1068.474,1497.112,1066.732Zm74.958-29.449a6.934,6.934,0,0,1-.2,5.712,5.55,5.55,0,0,1-3.046,2.591,22.337,22.337,0,0,1-2.782,1.115,1.6,1.6,0,0,1-1.385-.325c-.564-.726-.836-1.678-1.384-2.425-.863-1.174-1.869-2.233-2.774-3.377a13.016,13.016,0,0,1-1.045-1.733,23.174,23.174,0,0,1-.306-3.672,2.85,2.85,0,0,1,2.285-2.664c2.234-.709,4.5-1.242,6.619-.017A8.525,8.525,0,0,1,1572.069,1037.283Zm-28.652,28.51a18.654,18.654,0,0,1-.149,3.334c-.59,1.708-2.349,1.4-3.453,2.139-.264.179-1.232-.439-1.695-.879-1.147-1.089-2.09-2.413-3.3-3.4a3.666,3.666,0,0,1-1.223-3.8,3,3,0,0,1,2.32-2.5C1539.735,1059.487,1542.984,1061.656,1543.417,1065.793Z" transform="translate(-1492.122 -1031.757)"/>
</svg>
