<?xml version="1.0" encoding="utf-8"?>
<!-- Generator: Adobe Illustrator 25.0.0, SVG Export Plug-In . SVG Version: 6.00 Build 0)  -->
<svg version="1.1" id="Layer_1" xmlns="http://www.w3.org/2000/svg" xmlns:xlink="http://www.w3.org/1999/xlink" x="0px" y="0px"
	 viewBox="0 0 133 156.8" style="enable-background:new 0 0 133 156.8;" xml:space="preserve">
<path d="M3.5,143.7c19.4,8.1,39.5,13.1,61.8,13.1c38.9,0,67.7-22.6,67.7-57.2c0-26.7-18.6-38.9-41.2-47l-22.9-8.4
	C57.8,40.1,54,34.8,54,27.6c0-10.2,7-15.1,18-15.1c8.1,0,15.4,2,22.1,4.9c10.7,20.6,31.1,27,31.1,27l4.4-2.6c0,0-3.2-9-3.2-23.5v-11
	c-16.6,0-36-7.3-59.5-7.3C34.3,0,6.7,18,6.7,49.9c0,26.7,18.9,40.4,38.6,47.3l24.4,9c11.3,4.1,15.1,9.9,15.1,17.7
	c0,11.9-7.3,20-23.2,20c-8.7,0-16.8-2.6-25.3-7.8c-11.6-24.7-31.1-33.1-31.1-33.1L0,105.7c0,0,3.5,11.6,3.5,29V143.7z"/>
<style>
    path {
      fill: black;
    }
    @media (prefers-color-scheme: dark) {
      path {
        fill: white;
      }
    }
     @media (prefers-color-scheme: light) {
      path {
        fill: black;
      }
    }
  </style>
</svg>
