<svg id="Logo_black" data-name="Logo black" xmlns="http://www.w3.org/2000/svg" width="829.81" height="170.372" viewBox="0 0 829.81 170.372">
  <path id="Path_1" data-name="Path 1" d="M899.956,164.131l-3.879-3.345c-10.58,7.98-19.877,13.648-36.142,13.648s-29.42-10.814-30.97-43.5l73.311,1.289V120.9c0-34.232-20.914-59.962-60.667-59.962-34.593,0-65.563,26.508-65.563,71.032,0,45.291,26.845,67.942,67.369,67.942,30.211,0,47.5-17.505,56.542-35.777M842.643,71.482c9.811,0,12.13,17.249,12.13,44.524v4.635l-25.809,1.8c0-19.306,1.026-50.96,13.679-50.96M662.1,60.934l-59.632,11.06V77.15l15.486,2.824v107.32l-15.229,5.667v4.369h79v-4.369l-10.334-5.667V87.442a26.905,26.905,0,0,1,14.972-4.379c11.1,0,14.458,6.946,14.458,15.182v89.048l-10.836,5.667v4.369h79.241v-4.369l-15.228-5.667V105.969c0-32.687-18.072-45.035-42.33-45.035a58.427,58.427,0,0,0-40.278,16.727h-1.026V60.934Zm-150.634,118.9c-5.418,0-9.811-3.857-9.811-17.5V135.056a93.588,93.588,0,0,1,21.427-8.758c0,15.7-.256,31.4-.256,44.269a28.123,28.123,0,0,0,.256,4.634,18.977,18.977,0,0,1-11.616,4.635m47.246,20.073c21.17,0,33.3-7.459,38.718-31.654l-5.932-1.8c-1.817,7.2-5.942,16.727-11.36,16.727-2.842,0-4.9-1.8-4.9-7.725,0-30.109.77-43.235.77-63.83,0-33.454-19.62-50.693-60.145-50.693-28.137,0-52.664,13.126-62.474,22.641,2.586,18.282,12.653,27.541,12.653,27.541h21.427s.513-24.963,10.067-36.544a24.868,24.868,0,0,1,9.544-2.056c12.14,0,16.265,6.947,16.265,28.821v15.7c-20.9,4.635-56.276,14.4-73.823,31.91v15.96c0,26,19.1,35,38.974,35,16.778,0,28.918-8.236,37.179-16.727,4.9,10.291,16.265,16.727,33.043,16.727M432.449,110.6s7.48-23.162,7.48-47.869a58.1,58.1,0,0,0-14.449-1.8c-14.972,0-29.954,7.98-39.241,20.073h-.78V60.934H377.2l-62.207,11.06v4.379l18.072,2.834V187.294l-17.815,5.667v4.369h91.9v-4.369l-20.913-5.667V92.843A41.463,41.463,0,0,1,401.211,84.1c4.393,8.236,5.419,26.508,5.419,26.508ZM199.475,73.539h17.548v109.9c11.873,10.036,27.368,16.472,47.246,16.472,18.071,0,30.713-4.891,43.11-16.216l-4.136-5.4c-4.9,3.6-12.129,7.459-19.1,7.459-4.9,0-10.323-1.535-14.2-5.4V73.539h29.174V63.5H269.943V29.536H255.75L218.572,63.5l-19.1,3.6ZM75.563,188.326c17.292,7.2,35.106,11.582,54.983,11.582,34.593,0,60.155-20.073,60.155-50.7,0-23.674-16.521-34.488-36.665-41.69l-20.39-7.468c-9.811-3.6-13.166-8.236-13.166-14.66,0-9.013,6.2-13.392,16.008-13.392a48.857,48.857,0,0,1,19.621,4.379c9.554,18.272,27.614,23.939,27.614,23.939l3.88-2.322s-2.843-7.98-2.843-20.84V67.369c-14.715,0-32.007-6.435-52.919-6.435-28.908,0-53.433,15.95-53.433,44.269,0,23.674,16.778,35.766,34.325,41.946l21.694,7.98c10.067,3.6,13.423,8.747,13.423,15.694,0,10.558-6.454,17.761-20.657,17.761-7.737,0-14.972-2.313-22.453-6.946C94.4,159.763,77.113,152.295,77.113,152.295l-4.648,2.322s3.1,10.292,3.1,25.73Z" transform="translate(-72.465 -29.536)"/>
</svg>
