<svg xmlns="http://www.w3.org/2000/svg" width="381.399" height="70" viewBox="0 0 381.399 70"><defs><style>.a{fill:#efdf00;}</style></defs><g transform="translate(0.001)"><path d="M411.423,85.687l-1.589-1.374c-4.334,3.279-8.142,5.607-14.8,5.607s-12.051-4.443-12.686-17.873l30.029.529V67.924c0-14.065-8.567-24.636-24.851-24.636-14.17,0-26.856,10.891-26.856,29.184,0,18.608,11,27.915,27.6,27.915,12.375,0,19.458-7.192,23.161-14.7M387.947,47.621c4.018,0,4.968,7.087,4.968,18.293v1.9l-10.572.74c0-7.932.421-20.938,5.6-20.938m-73.955-4.334-24.426,4.544V49.95l6.343,1.16V95.2l-6.238,2.329v1.795h32.358V97.532L317.8,95.2V54.179a10.992,10.992,0,0,1,6.133-1.8c4.548,0,5.923,2.854,5.923,6.238V95.2l-4.439,2.329v1.795h32.459V97.532L351.634,95.2V61.791c0-13.43-7.4-18.5-17.339-18.5a23.894,23.894,0,0,0-16.5,6.873h-.421V43.287Zm-61.7,48.852c-2.219,0-4.018-1.585-4.018-7.192V73.741a38.274,38.274,0,0,1,8.776-3.6c0,6.452-.1,12.9-.1,18.188a11.594,11.594,0,0,0,.1,1.9,7.76,7.76,0,0,1-4.758,1.9m19.353,8.247c8.672,0,13.64-3.064,15.86-13.005l-2.43-.74c-.744,2.959-2.434,6.873-4.653,6.873-1.165,0-2.009-.74-2.009-3.173,0-12.371.315-17.764.315-26.225,0-13.745-8.037-20.828-24.636-20.828-11.526,0-21.572,5.393-25.59,9.3,1.059,7.511,5.183,11.315,5.183,11.315h8.776s.21-10.256,4.124-15.015a10.153,10.153,0,0,1,3.909-.845c4.973,0,6.662,2.854,6.662,11.841v6.452c-8.562,1.9-23.052,5.918-30.24,13.11v6.558c0,10.681,7.823,14.38,15.965,14.38a20.913,20.913,0,0,0,15.229-6.873c2.009,4.229,6.662,6.873,13.535,6.873M219.924,63.695a72.836,72.836,0,0,0,3.064-19.668,23.749,23.749,0,0,0-5.918-.74A20.867,20.867,0,0,0,201,51.534h-.319V43.287h-3.384l-25.481,4.544v1.8l7.4,1.164V95.2l-7.3,2.329v1.795h37.646V97.532L201,95.2V56.4a16.972,16.972,0,0,1,6.133-3.594c1.8,3.384,2.219,10.891,2.219,10.891Zm-95.43-15.229h7.188V93.619a28.991,28.991,0,0,0,19.353,6.767c7.4,0,12.581-2.009,17.659-6.662L167,91.5c-2.009,1.48-4.968,3.064-7.822,3.064a8.21,8.21,0,0,1-5.818-2.22V48.466h11.95V44.342h-11.95V30.387h-5.813L132.316,44.342l-7.823,1.48ZM73.737,95.628a57.288,57.288,0,0,0,22.522,4.758c14.17,0,24.641-8.247,24.641-20.832,0-9.727-6.768-14.17-15.019-17.129l-8.352-3.068c-4.018-1.48-5.393-3.384-5.393-6.023,0-3.7,2.539-5.5,6.557-5.5a19.956,19.956,0,0,1,8.037,1.8,21.211,21.211,0,0,0,11.311,9.836l1.589-.954a27.938,27.938,0,0,1-1.165-8.562V45.931c-6.028,0-13.11-2.644-21.677-2.644-11.841,0-21.887,6.553-21.887,18.188,0,9.727,6.873,14.7,14.061,17.234l8.886,3.279c4.124,1.48,5.5,3.594,5.5,6.448,0,4.338-2.644,7.3-8.461,7.3a17.039,17.039,0,0,1-9.2-2.854c-4.233-8.987-11.315-12.055-11.315-12.055l-1.9.954A40.348,40.348,0,0,1,73.737,92.35Z" transform="translate(-72.468 -30.387)"/></g><rect class="a" width="5.281" height="53.503" transform="translate(352.104 15.441)"/><path d="M411.415,85.689l-1.586-1.375c-4.335,3.278-8.142,5.6-14.8,5.6s-12.055-4.441-12.689-17.87l30.031.529V67.924c0-14.062-8.565-24.636-24.849-24.636-14.169,0-26.859,10.891-26.859,29.183,0,18.61,11,27.916,27.6,27.916,12.372,0,19.457-7.191,23.158-14.7M387.941,47.623c4.018,0,4.97,7.085,4.97,18.292v1.9l-10.574.74c0-7.931.423-20.935,5.6-20.935m-73.955-4.335-24.425,4.547v2.115l6.345,1.163V95.205l-6.239,2.327v1.8h32.356v-1.8l-4.229-2.327V54.179a11,11,0,0,1,6.133-1.8c4.547,0,5.921,2.855,5.921,6.237V95.205l-4.441,2.327v1.8l32.463,0v-1.8l-6.239-2.327V61.791c0-13.428-7.4-18.5-17.342-18.5a23.893,23.893,0,0,0-16.5,6.873h-.423V43.288Zm-61.7,48.851c-2.221,0-4.018-1.586-4.018-7.191V73.74a38.215,38.215,0,0,1,8.776-3.6c0,6.45-.106,12.9-.106,18.188a11.5,11.5,0,0,0,.106,1.9,7.766,7.766,0,0,1-4.758,1.9m19.351,8.248c8.671,0,13.639-3.066,15.86-13.006l-2.432-.74c-.74,2.961-2.432,6.873-4.651,6.873-1.163,0-2.009-.74-2.009-3.172,0-12.372.317-17.765.317-26.224,0-13.745-8.036-20.83-24.638-20.83-11.526,0-21.572,5.393-25.589,9.305,1.057,7.506,5.181,11.313,5.181,11.313h8.777s.211-10.255,4.124-15.014a10.209,10.209,0,0,1,3.913-.846c4.97,0,6.662,2.855,6.662,11.842v6.45c-8.565,1.9-23.052,5.921-30.242,13.112v6.556c0,10.68,7.825,14.381,15.967,14.381A20.906,20.906,0,0,0,258.1,93.514c2.009,4.229,6.662,6.873,13.535,6.873M219.92,63.695a72.771,72.771,0,0,0,3.067-19.667,23.881,23.881,0,0,0-5.921-.74,20.865,20.865,0,0,0-16.073,8.248h-.317V43.288h-3.384l-25.484,4.547v1.8l7.4,1.163v44.41l-7.3,2.327v1.8h37.645v-1.8l-8.565-2.327V56.4a17,17,0,0,1,6.133-3.6c1.8,3.383,2.221,10.89,2.221,10.89ZM124.49,48.469h7.191v45.15a28.986,28.986,0,0,0,19.351,6.767c7.4,0,12.583-2.009,17.659-6.662L167,91.5c-2.009,1.48-4.97,3.066-7.825,3.066a8.215,8.215,0,0,1-5.816-2.22V48.469h11.949V44.345H153.358V30.387h-5.816L132.315,44.345l-7.825,1.484ZM73.737,95.629a57.276,57.276,0,0,0,22.523,4.758c14.169,0,24.636-8.248,24.636-20.831,0-9.728-6.767-14.169-15.014-17.13l-8.354-3.066c-4.018-1.48-5.393-3.384-5.393-6.026,0-3.7,2.538-5.5,6.556-5.5a19.9,19.9,0,0,1,8.036,1.8,21.2,21.2,0,0,0,11.313,9.833l1.586-.95a27.976,27.976,0,0,1-1.163-8.565V45.931c-6.027,0-13.111-2.644-21.676-2.644-11.843,0-21.889,6.556-21.889,18.186,0,9.728,6.873,14.7,14.064,17.236l8.882,3.278c4.124,1.48,5.5,3.6,5.5,6.45,0,4.335-2.644,7.3-8.46,7.3a17.048,17.048,0,0,1-9.2-2.855c-4.23-8.988-11.315-12.054-11.315-12.054l-1.9.952a40.39,40.39,0,0,1,1.269,10.574Z" transform="translate(-72.468 -30.387)"/><path d="M1098.625,72.789l-11.857.125v2.481l4.848-.051v4.3l-4.848.051v2.481l11.857-.125v-2.48l-4.964.052v-4.3l4.964-.052Zm-3.5,11.706a3.23,3.23,0,0,0-2.516,1.009,4.4,4.4,0,0,0-.916,2.437l-.2,1.5a2.3,2.3,0,0,1-.466,1.184,1.121,1.121,0,0,1-.851.384c-.818.008-1.5-.627-1.5-1.949a3.732,3.732,0,0,1,.815-2.616l-1.448-1.554a5.727,5.727,0,0,0-1.382,4.12c0,2.749,1.481,4.409,3.6,4.387a3.042,3.042,0,0,0,2.331-.933,4.478,4.478,0,0,0,.985-2.473l.2-1.539a2.005,2.005,0,0,1,.415-1.128,1.29,1.29,0,0,1,1-.4c.952-.01,1.468.769,1.468,2.235a4.391,4.391,0,0,1-1,3.081l1.5,1.589a6.276,6.276,0,0,0,1.564-4.656c0-2.66-1.3-4.7-3.6-4.675m-.549,14.553v3.159l-4.314-1.562Zm4.045-4.042-11.857,4.767v1.944l11.857,4.5v-2.59l-2.1-.745V98.367l2.1-.772Zm-9.793,11.228-2.063.022v9.12l2.063-.021v-3.321l9.793-.1v-2.481l-9.793.1Zm6.3,10.813a3.232,3.232,0,0,0-2.516,1.009,4.4,4.4,0,0,0-.916,2.434l-.2,1.5a2.3,2.3,0,0,1-.466,1.184,1.121,1.121,0,0,1-.851.384c-.818.008-1.5-.627-1.5-1.949A3.733,3.733,0,0,1,1089.5,119l-1.448-1.554a5.727,5.727,0,0,0-1.382,4.12c0,2.749,1.481,4.409,3.6,4.387a3.049,3.049,0,0,0,2.331-.933,4.493,4.493,0,0,0,.985-2.473l.2-1.538a2.009,2.009,0,0,1,.415-1.131,1.3,1.3,0,0,1,1-.4c.952-.01,1.468.772,1.468,2.235a4.383,4.383,0,0,1-1,3.081l1.5,1.592a6.283,6.283,0,0,0,1.564-4.659c0-2.66-1.3-4.7-3.6-4.673" transform="translate(-717.327 -57.348)"/></svg>